<?xml version="1.0" encoding="utf-8"?>
<!-- Generator: Adobe Illustrator 17.0.0, SVG Export Plug-In . SVG Version: 6.00 Build 0)  -->
<!DOCTYPE svg PUBLIC "-//W3C//DTD SVG 1.1//EN" "http://www.w3.org/Graphics/SVG/1.1/DTD/svg11.dtd">
<svg width="100%" height="100%" viewBox="0 0 280 42" preserveAspectRatio="none"
	version="1.1" id="图层_1" xmlns="http://www.w3.org/2000/svg" xmlns:xlink="http://www.w3.org/1999/xlink" enable-background="new 0 0 280 42" xml:space="preserve">
<g>
	<path fill="#595757" d="M63.322,17.416h8.328v-6.602h-7.719V9.697h22.547v1.117H78.76v6.602h8.328v1.219H63.322V17.416z
		 M65.15,12.541l1.117-0.609c0.676,0.609,1.658,1.693,2.945,3.25c0.066,0.068,0.102,0.137,0.102,0.203l-1.219,0.711
		C67.146,14.876,66.166,13.693,65.15,12.541z M66.674,21.173h17.062v11.375h-1.422v-1.117h-14.32v1.117h-1.32V21.173z
		 M67.994,22.392v3.352h14.32v-3.352H67.994z M67.994,26.962v3.25h14.32v-3.25H67.994z M72.971,10.814v6.602h4.469v-6.602H72.971z
		 M82.314,16.197l-1.219-0.812c1.219-1.285,2.234-2.438,3.047-3.453l1.219,0.609c-0.475,0.609-1.152,1.422-2.031,2.438
		C82.855,15.521,82.518,15.927,82.314,16.197z"/>
	<path fill="#595757" d="M100.088,8.58l1.32-0.406c0.066,0.203,0.168,0.543,0.305,1.016c0.338,0.881,0.609,1.559,0.812,2.031h10.867
		v1.219H89.018V11.22H100.9C100.697,10.408,100.426,9.529,100.088,8.58z M95.01,13.251l1.117-0.711
		c0.203,0.271,0.508,0.645,0.914,1.117c0.744,1.016,1.219,1.693,1.422,2.031L97.244,16.4h6.094c0.203-0.27,0.473-0.643,0.812-1.117
		c0.406-0.541,1.016-1.455,1.828-2.742l1.219,0.609c-0.678,1.152-1.422,2.234-2.234,3.25h6.398v13.101
		c0.066,1.691-0.881,2.539-2.844,2.539c-0.881,0-1.896,0-3.047,0c0-0.137-0.035-0.271-0.102-0.406c0-0.406-0.068-0.746-0.203-1.016
		c0.812,0.066,1.828,0.102,3.047,0.102c1.285,0.066,1.895-0.406,1.828-1.422V17.619H92.268v14.929h-1.32V16.4h6.195
		c-0.203-0.406-0.711-1.184-1.523-2.336C95.348,13.726,95.145,13.455,95.01,13.251z M98.564,18.33l1.016,0.914
		c-2.168,1.625-4.029,2.945-5.586,3.96c-0.068-0.203-0.238-0.473-0.508-0.812c-0.137-0.135-0.238-0.236-0.305-0.305
		C95.279,20.869,97.074,19.617,98.564,18.33z M105.979,28.993H96.33v-6.602h9.648V28.993z M97.65,23.61v4.164h7.109V23.61H97.65z
		 M102.729,19.244l0.914-0.914c1.895,1.084,3.723,2.27,5.484,3.555l-0.812,1.117C106.689,21.783,104.826,20.531,102.729,19.244z"/>
	<path fill="#595757" d="M115.627,17.212c-0.271-0.473-0.576-0.812-0.914-1.016c1.691-2.234,3.047-4.875,4.062-7.922l1.32,0.305
		c-0.406,1.287-0.881,2.473-1.422,3.555h4.57v1.219h-5.18C117.252,14.912,116.439,16.197,115.627,17.212z M114.916,21.986h3.352
		v-4.164h-1.625v-1.219h5.891v1.219h-2.945v4.164h3.656v1.218h-3.656v6.602c1.285-0.609,2.539-1.32,3.758-2.133
		c0.135,0.475,0.236,0.914,0.305,1.32c-1.422,0.676-2.777,1.455-4.062,2.336c-0.137,0.135-0.305,0.305-0.508,0.508
		c-0.271,0.203-0.475,0.338-0.609,0.406l-0.812-1.117c0.406-0.475,0.609-0.982,0.609-1.523v-6.398h-3.352V21.986z M125.072,9.392
		h11.984v11.781h-6.297c0.609,1.828,1.285,3.386,2.031,4.671c1.895-1.082,3.555-2.133,4.977-3.148l0.914,1.016
		c-0.068,0-0.137,0.035-0.203,0.102c-1.287,0.881-2.912,1.896-4.875,3.047c1.15,1.355,3.113,2.709,5.891,4.062
		c-0.271,0.338-0.576,0.711-0.914,1.117c-4.943-2.168-7.99-5.789-9.141-10.867h-2.945v8.937c0.135-0.068,0.371-0.17,0.711-0.305
		c1.76-0.744,3.012-1.354,3.758-1.828c0.066,0.137,0.102,0.373,0.102,0.711c0.066,0.34,0.102,0.609,0.102,0.812
		c-1.625,0.541-3.148,1.219-4.57,2.031c-0.068,0.066-0.203,0.168-0.406,0.305c-0.406,0.203-0.678,0.406-0.812,0.609l-1.016-1.117
		c0.473-0.543,0.711-1.152,0.711-1.828V9.392z M126.494,10.611v4.062h9.242v-4.062H126.494z M126.494,19.955h9.242v-4.062h-9.242
		V19.955z"/>
	<path fill="#595757" d="M140.814,23.509c2.504-2.097,4.84-5.009,7.008-8.734l1.32,0.711c-1.016,1.625-1.93,2.98-2.742,4.062v13
		h-1.422V21.376c-1.422,1.558-2.574,2.708-3.453,3.453c0-0.066-0.035-0.168-0.102-0.305
		C141.287,24.255,141.084,23.915,140.814,23.509z M142.236,16.4c-0.203-0.473-0.475-0.914-0.812-1.32
		c2.369-1.828,4.469-4.096,6.297-6.805l1.32,0.812C147.213,11.662,144.943,14.099,142.236,16.4z M150.057,17.923h15.539v1.32h-5.078
		v9.648c0.135,2.098-0.982,3.148-3.352,3.148c-0.949,0.066-2.066,0.102-3.352,0.102c-0.068-0.271-0.137-0.609-0.203-1.016
		c-0.068-0.203-0.102-0.373-0.102-0.508c0.947,0,2.064,0,3.352,0c1.625,0.066,2.369-0.543,2.234-1.828v-9.546h-9.039V17.923z
		 M151.58,10.205h12.594v1.32H151.58V10.205z"/>
	<path fill="#595757" d="M168.744,32.548c-0.068-0.137-0.17-0.34-0.305-0.609c-0.203-0.406-0.373-0.678-0.508-0.812
		c4.469-0.678,8.023-1.828,10.664-3.453c-1.152-0.541-3.014-1.387-5.586-2.539c-0.678-0.338-1.219-0.574-1.625-0.711
		c0.338-0.473,0.879-1.285,1.625-2.437c0.406-0.676,0.711-1.184,0.914-1.523h-7.008v-1.32h7.82c0.203-0.338,0.473-0.846,0.812-1.523
		c0.676-1.354,1.219-2.369,1.625-3.047l1.32,0.508c-0.137,0.203-0.305,0.543-0.508,1.016c-0.34,0.678-0.914,1.693-1.727,3.047
		h15.234v1.32h-5.281c-1.016,2.777-2.641,5.078-4.875,6.906c0.609,0.271,1.455,0.645,2.539,1.117
		c1.285,0.543,3.215,1.387,5.789,2.539l-0.812,1.32c-0.543-0.271-1.355-0.645-2.438-1.117c-2.777-1.287-4.91-2.234-6.398-2.844
		C177.24,30.144,173.482,31.532,168.744,32.548z M177.783,8.783l1.219-0.609c0.27,0.34,0.643,0.881,1.117,1.625
		c0.473,0.746,0.812,1.287,1.016,1.625l-1.117,0.609h10.156v4.266h-1.422v-2.945H169.76v2.945h-1.422v-4.266h11.375
		c-0.203-0.338-0.508-0.879-0.914-1.625C178.324,9.664,177.986,9.123,177.783,8.783z M173.314,23.915
		c0.812,0.34,2.098,0.881,3.859,1.625c1.219,0.543,2.133,0.949,2.742,1.219c2.234-1.76,3.824-3.859,4.773-6.296h-9.242
		C174.77,21.681,174.059,22.833,173.314,23.915z"/>
	<path fill="#595757" d="M216.479,18.736c-5.012-2.438-8.734-5.348-11.172-8.734c-3.115,3.656-6.941,6.637-11.477,8.938
		c-0.34-0.406-0.678-0.777-1.016-1.117c5.551-2.91,9.613-6.16,12.188-9.75l1.523,0.305c-0.137,0.203-0.305,0.406-0.508,0.609
		c2.775,3.521,6.602,6.332,11.477,8.43C217.291,17.755,216.951,18.195,216.479,18.736z M197.08,17.923h16.148v1.32h-7.312v4.57
		h8.328v1.32h-8.328v4.773h10.562v1.32h-22.547v-1.32h10.562v-4.773h-8.328v-1.32h8.328v-4.57h-7.414V17.923z"/>
	<path fill="#595757" d="M219.525,17.314c-0.068-0.066-0.137-0.135-0.203-0.203c-0.137-0.27-0.34-0.541-0.609-0.812
		c1.354-2.166,2.402-4.84,3.148-8.023l1.32,0.203c-0.406,1.287-0.812,2.506-1.219,3.656h3.656v1.117h-4.062
		C221.014,14.673,220.338,16.029,219.525,17.314z M219.018,21.072h2.742v-3.453h-1.32v-1.117h4.773v1.117h-2.234v3.453h2.945v1.117
		h-2.945v6.5c1.082-1.082,1.895-1.93,2.438-2.539c0.203,0.406,0.406,0.779,0.609,1.117c-0.543,0.543-1.389,1.32-2.539,2.336
		c-0.271,0.203-0.475,0.371-0.609,0.508c-0.34,0.338-0.609,0.676-0.812,1.016l-0.914-0.812c0.406-0.475,0.609-0.947,0.609-1.422
		v-6.703h-2.742V21.072z M236.283,31.431c-3.793-0.137-6.332-1.016-7.617-2.641c-0.609,1.15-1.523,2.369-2.742,3.656
		c-0.068-0.068-0.238-0.203-0.508-0.406c-0.203-0.203-0.373-0.34-0.508-0.406c1.557-1.625,2.572-2.979,3.047-4.062
		c-0.678-1.219-1.32-2.91-1.93-5.078l1.117-0.406c0.473,1.625,0.947,2.98,1.422,4.062c0.541-1.488,0.914-3.621,1.117-6.398h-3.25
		v-1.32l3.555-6.703h-3.656v-1.117h4.977v1.32l-3.656,6.602h3.25v1.219c-0.271,3.386-0.779,5.958-1.523,7.718
		c1.082,1.828,3.453,2.742,7.109,2.742c1.488,0.066,3.824,0.102,7.008,0.102c-0.203,0.473-0.373,0.914-0.508,1.32
		C240.752,31.634,238.518,31.565,236.283,31.431z M232.627,11.931v-1.117h3.352V8.275h1.219v2.539h4.469v3.555h1.727v1.117h-1.727
		v3.555h-4.469v2.641h4.672v1.117h-4.672v2.539h5.281v1.117h-5.281v2.742h-1.219v-2.742h-4.469v-1.117h4.469v-2.539h-3.859v-1.117
		h3.859v-2.641h-3.352v-1.016h3.352v-2.539h-4.57v-1.117h4.57v-2.438H232.627z M240.447,11.931h-3.25v2.438h3.25V11.931z
		 M237.197,15.486v2.539h3.25v-2.539H237.197z"/>
	<path fill="#595757" d="M248.268,24.017h18.078v6.398h3.148v1.219h-24.578v-1.219h3.352V24.017z M245.221,16.501h4.469
		c0.066-0.676,0.102-1.523,0.102-2.539v-3.25h5.484c0.135-0.406,0.305-0.98,0.508-1.727c0.066-0.338,0.135-0.609,0.203-0.812
		l1.422,0.203c-0.068,0.34-0.203,0.812-0.406,1.422c-0.137,0.406-0.238,0.711-0.305,0.914h8.938v5.789h3.555v1.219h-3.555v2.031
		c0.135,1.828-0.711,2.742-2.539,2.742c-1.084,0-1.965,0-2.641,0c-0.068-0.473-0.17-0.914-0.305-1.32c0.744,0,1.557,0,2.438,0
		c1.219,0.068,1.793-0.473,1.727-1.625V17.72h-13.406c-0.203,2.777-1.625,4.976-4.266,6.601c-0.34-0.338-0.678-0.676-1.016-1.016
		c2.438-1.488,3.758-3.351,3.961-5.585h-4.367V16.501z M249.588,25.134v5.281h4.164v-5.281H249.588z M251.111,13.962
		c0,1.016-0.035,1.863-0.102,2.539h13.305V11.83h-13.203V13.962z M254.158,19.447l0.711-0.914c1.895,1.084,3.25,1.896,4.062,2.438
		l-0.812,1.016c-0.609-0.406-1.625-1.082-3.047-2.031C254.666,19.751,254.361,19.583,254.158,19.447z M254.971,13.556l0.711-1.016
		c1.354,0.812,2.674,1.625,3.961,2.438l-0.812,1.117C257.205,14.945,255.918,14.099,254.971,13.556z M255.072,25.134v5.281h4.266
		v-5.281H255.072z M265.025,25.134h-4.367v5.281h4.367V25.134z"/>
</g>
<g>
	<path fill="#E40012" d="M10.091,15.777h2.542c0.16,0,0.296,0.136,0.296,0.296v2.542c0,0.159-0.136,0.296-0.296,0.296h-2.542
		c-0.16,0-0.296-0.137-0.296-0.296v-2.542C9.795,15.913,9.931,15.777,10.091,15.777z"/>
	<path fill="#ED827D" d="M10.091,19.434h2.542c0.16,0,0.296,0.135,0.296,0.294v2.544c0,0.158-0.136,0.296-0.296,0.296h-2.542
		c-0.16,0-0.296-0.138-0.296-0.296v-2.544C9.795,19.568,9.931,19.434,10.091,19.434z"/>
	<path fill="#E40012" d="M10.091,23.089h2.542c0.16,0,0.296,0.137,0.296,0.294v2.544c0,0.16-0.136,0.296-0.296,0.296h-2.542
		c-0.16,0-0.296-0.136-0.296-0.296v-2.544C9.795,23.226,9.931,23.089,10.091,23.089z"/>
	<path fill="#E40012" d="M13.747,8.466h2.541c0.16,0,0.296,0.137,0.296,0.294v2.544c0,0.158-0.136,0.295-0.296,0.295h-2.541
		c-0.159,0-0.298-0.138-0.298-0.295V8.761C13.45,8.603,13.588,8.466,13.747,8.466z"/>
	<path fill="#E40012" d="M13.747,12.122h2.541c0.16,0,0.296,0.136,0.296,0.295v2.543c0,0.159-0.136,0.295-0.296,0.295h-2.541
		c-0.159,0-0.298-0.136-0.298-0.295v-2.543C13.45,12.258,13.588,12.122,13.747,12.122z"/>
	<path fill="#E40012" d="M13.747,15.777h2.541c0.16,0,0.296,0.136,0.296,0.296v2.542c0,0.159-0.136,0.296-0.296,0.296h-2.541
		c-0.159,0-0.298-0.137-0.298-0.296v-2.542C13.45,15.913,13.588,15.777,13.747,15.777z"/>
	<path fill="#E40012" d="M13.747,19.434h2.541c0.16,0,0.296,0.135,0.296,0.294v2.544c0,0.158-0.136,0.296-0.296,0.296h-2.541
		c-0.159,0-0.298-0.138-0.298-0.296v-2.544C13.45,19.568,13.588,19.434,13.747,19.434z"/>
	<path fill="#E40012" d="M13.747,23.089h2.541c0.16,0,0.296,0.137,0.296,0.294v2.544c0,0.16-0.136,0.296-0.296,0.296h-2.541
		c-0.159,0-0.298-0.136-0.298-0.296v-2.544C13.45,23.226,13.588,23.089,13.747,23.089z"/>
	<path fill="#E40012" d="M13.747,26.744h2.541c0.16,0,0.296,0.137,0.296,0.296v2.544c0,0.158-0.136,0.294-0.296,0.294h-2.541
		c-0.159,0-0.298-0.136-0.298-0.294V27.04C13.45,26.881,13.588,26.744,13.747,26.744z"/>
	<path fill="#E40012" d="M13.747,30.401h2.541c0.16,0,0.296,0.136,0.296,0.294v2.544c0,0.158-0.136,0.296-0.296,0.296h-2.541
		c-0.159,0-0.298-0.138-0.298-0.296v-2.544C13.45,30.537,13.588,30.401,13.747,30.401z"/>
	<path fill="#E40012" d="M17.401,4.81h2.544c0.159,0,0.294,0.137,0.294,0.296v2.542c0,0.158-0.135,0.296-0.294,0.296h-2.544
		c-0.158,0-0.294-0.138-0.294-0.296V5.106C17.106,4.947,17.243,4.81,17.401,4.81z"/>
	<path fill="#E40012" d="M17.401,8.466h2.544c0.159,0,0.294,0.137,0.294,0.294v2.544c0,0.158-0.135,0.295-0.294,0.295h-2.544
		c-0.158,0-0.294-0.138-0.294-0.295V8.761C17.106,8.603,17.243,8.466,17.401,8.466z"/>
	<path fill="#E40012" d="M17.401,12.122h2.544c0.159,0,0.294,0.136,0.294,0.295v2.543c0,0.159-0.135,0.295-0.294,0.295h-2.544
		c-0.158,0-0.294-0.136-0.294-0.295v-2.543C17.106,12.258,17.243,12.122,17.401,12.122z"/>
	<path fill="#EE8000" d="M17.401,15.777h2.544c0.159,0,0.294,0.136,0.294,0.296v2.542c0,0.159-0.135,0.296-0.294,0.296h-2.544
		c-0.158,0-0.294-0.137-0.294-0.296v-2.542C17.106,15.913,17.243,15.777,17.401,15.777z"/>
	<path fill="#E40012" d="M17.401,19.434h2.544c0.159,0,0.294,0.135,0.294,0.294v2.544c0,0.158-0.135,0.296-0.294,0.296h-2.544
		c-0.158,0-0.294-0.138-0.294-0.296v-2.544C17.106,19.568,17.243,19.434,17.401,19.434z"/>
	<path fill="#D4007F" d="M17.401,23.089h2.544c0.159,0,0.294,0.137,0.294,0.294v2.544c0,0.16-0.135,0.296-0.294,0.296h-2.544
		c-0.158,0-0.294-0.136-0.294-0.296v-2.544C17.106,23.226,17.243,23.089,17.401,23.089z"/>
	<path fill="#E40012" d="M17.401,26.744h2.544c0.159,0,0.294,0.137,0.294,0.296v2.544c0,0.158-0.135,0.294-0.294,0.294h-2.544
		c-0.158,0-0.294-0.136-0.294-0.294V27.04C17.106,26.881,17.243,26.744,17.401,26.744z"/>
	<path fill="#A20000" d="M17.401,30.401h2.544c0.159,0,0.294,0.136,0.294,0.294v2.544c0,0.158-0.135,0.296-0.294,0.296h-2.544
		c-0.158,0-0.294-0.138-0.294-0.296v-2.544C17.106,30.537,17.243,30.401,17.401,30.401z"/>
	<path fill="#E40012" d="M17.401,34.056h2.544c0.159,0,0.294,0.136,0.294,0.296v2.542c0,0.159-0.135,0.296-0.294,0.296h-2.544
		c-0.158,0-0.294-0.136-0.294-0.296v-2.542C17.106,34.192,17.243,34.056,17.401,34.056z"/>
	<path fill="#E40012" d="M21.057,4.81h2.544c0.158,0,0.294,0.137,0.294,0.296v2.542c0,0.158-0.137,0.296-0.294,0.296h-2.544
		c-0.159,0-0.295-0.138-0.295-0.296V5.106C20.762,4.947,20.898,4.81,21.057,4.81z"/>
	<path fill="#D4007F" d="M21.057,8.466h2.544c0.158,0,0.294,0.137,0.294,0.294v2.544c0,0.158-0.137,0.295-0.294,0.295h-2.544
		c-0.159,0-0.295-0.138-0.295-0.295V8.761C20.762,8.603,20.898,8.466,21.057,8.466z"/>
	<path fill="#E40012" d="M21.057,12.122h2.544c0.158,0,0.294,0.136,0.294,0.295v2.543c0,0.159-0.137,0.295-0.294,0.295h-2.544
		c-0.159,0-0.295-0.136-0.295-0.295v-2.543C20.762,12.258,20.898,12.122,21.057,12.122z"/>
	<path fill="#E40012" d="M21.057,15.777h2.544c0.158,0,0.294,0.136,0.294,0.296v2.542c0,0.159-0.137,0.296-0.294,0.296h-2.544
		c-0.159,0-0.295-0.137-0.295-0.296v-2.542C20.762,15.913,20.898,15.777,21.057,15.777z"/>
	<path fill="#ED827D" d="M21.057,19.434h2.544c0.158,0,0.294,0.135,0.294,0.294v2.544c0,0.158-0.137,0.296-0.294,0.296h-2.544
		c-0.159,0-0.295-0.138-0.295-0.296v-2.544C20.762,19.568,20.898,19.434,21.057,19.434z"/>
	<path fill="#E40012" d="M21.057,23.089h2.544c0.158,0,0.294,0.137,0.294,0.294v2.544c0,0.16-0.137,0.296-0.294,0.296h-2.544
		c-0.159,0-0.295-0.136-0.295-0.296v-2.544C20.762,23.226,20.898,23.089,21.057,23.089z"/>
	<path fill="#E40012" d="M21.057,26.744h2.544c0.158,0,0.294,0.137,0.294,0.296v2.544c0,0.158-0.137,0.294-0.294,0.294h-2.544
		c-0.159,0-0.295-0.136-0.295-0.294V27.04C20.762,26.881,20.898,26.744,21.057,26.744z"/>
	<path fill="#EE8000" d="M21.057,30.401h2.544c0.158,0,0.294,0.136,0.294,0.294v2.544c0,0.158-0.137,0.296-0.294,0.296h-2.544
		c-0.159,0-0.295-0.138-0.295-0.296v-2.544C20.762,30.537,20.898,30.401,21.057,30.401z"/>
	<path fill="#E40012" d="M21.057,34.056h2.544c0.158,0,0.294,0.136,0.294,0.296v2.542c0,0.159-0.137,0.296-0.294,0.296h-2.544
		c-0.159,0-0.295-0.136-0.295-0.296v-2.542C20.762,34.192,20.898,34.056,21.057,34.056z"/>
	<path fill="#E40012" d="M24.713,1.155h2.542c0.159,0,0.297,0.136,0.297,0.294v2.544c0,0.158-0.138,0.294-0.297,0.294h-2.542
		c-0.158,0-0.294-0.136-0.294-0.294V1.449C24.419,1.291,24.555,1.155,24.713,1.155z"/>
	<path fill="#ED827D" d="M24.713,4.81h2.542c0.159,0,0.297,0.137,0.297,0.296v2.542c0,0.158-0.138,0.296-0.297,0.296h-2.542
		c-0.158,0-0.294-0.138-0.294-0.296V5.106C24.419,4.947,24.555,4.81,24.713,4.81z"/>
	<path fill="#E40012" d="M24.713,8.466h2.542c0.159,0,0.297,0.137,0.297,0.294v2.544c0,0.158-0.138,0.295-0.297,0.295h-2.542
		c-0.158,0-0.294-0.138-0.294-0.295V8.761C24.419,8.603,24.555,8.466,24.713,8.466z"/>
	<path fill="#A20000" d="M24.713,12.122h2.542c0.159,0,0.297,0.136,0.297,0.295v2.543c0,0.159-0.138,0.295-0.297,0.295h-2.542
		c-0.158,0-0.294-0.136-0.294-0.295v-2.543C24.419,12.258,24.555,12.122,24.713,12.122z"/>
	<path fill="#E40012" d="M24.713,26.744h2.542c0.159,0,0.297,0.137,0.297,0.296v2.544c0,0.158-0.138,0.294-0.297,0.294h-2.542
		c-0.158,0-0.294-0.136-0.294-0.294V27.04C24.419,26.881,24.555,26.744,24.713,26.744z"/>
	<path fill="#E40012" d="M24.713,30.401h2.542c0.159,0,0.297,0.136,0.297,0.294v2.544c0,0.158-0.138,0.296-0.297,0.296h-2.542
		c-0.158,0-0.294-0.138-0.294-0.296v-2.544C24.419,30.537,24.555,30.401,24.713,30.401z"/>
	<path fill="#E40012" d="M24.713,34.056h2.542c0.159,0,0.297,0.136,0.297,0.296v2.542c0,0.159-0.138,0.296-0.297,0.296h-2.542
		c-0.158,0-0.294-0.136-0.294-0.296v-2.542C24.419,34.192,24.555,34.056,24.713,34.056z"/>
	<path fill="#E40012" d="M24.713,37.711h2.542c0.159,0,0.297,0.136,0.297,0.296v2.542c0,0.16-0.138,0.296-0.297,0.296h-2.542
		c-0.158,0-0.294-0.136-0.294-0.296v-2.542C24.419,37.847,24.555,37.711,24.713,37.711z"/>
	<path fill="#E40012" d="M28.368,1.155h2.544c0.16,0,0.296,0.136,0.296,0.294v2.544c0,0.158-0.136,0.294-0.296,0.294h-2.544
		c-0.158,0-0.294-0.136-0.294-0.294V1.449C28.074,1.291,28.21,1.155,28.368,1.155z"/>
	<path fill="#E40012" d="M28.368,4.81h2.544c0.16,0,0.296,0.137,0.296,0.296v2.542c0,0.158-0.136,0.296-0.296,0.296h-2.544
		c-0.158,0-0.294-0.138-0.294-0.296V5.106C28.074,4.947,28.21,4.81,28.368,4.81z"/>
	<path fill="#A20000" d="M28.368,8.466h2.544c0.16,0,0.296,0.137,0.296,0.294v2.544c0,0.158-0.136,0.295-0.296,0.295h-2.544
		c-0.158,0-0.294-0.138-0.294-0.295V8.761C28.074,8.603,28.21,8.466,28.368,8.466z"/>
	<path fill="#ED827D" d="M28.368,12.122h2.544c0.16,0,0.296,0.136,0.296,0.295v2.543c0,0.159-0.136,0.295-0.296,0.295h-2.544
		c-0.158,0-0.294-0.136-0.294-0.295v-2.543C28.074,12.258,28.21,12.122,28.368,12.122z"/>
	<path fill="#A20000" d="M28.368,26.744h2.544c0.16,0,0.296,0.137,0.296,0.296v2.544c0,0.158-0.136,0.294-0.296,0.294h-2.544
		c-0.158,0-0.294-0.136-0.294-0.294V27.04C28.074,26.881,28.21,26.744,28.368,26.744z"/>
	<path fill="#E40012" d="M28.368,30.401h2.544c0.16,0,0.296,0.136,0.296,0.294v2.544c0,0.158-0.136,0.296-0.296,0.296h-2.544
		c-0.158,0-0.294-0.138-0.294-0.296v-2.544C28.074,30.537,28.21,30.401,28.368,30.401z"/>
	<path fill="#ED827D" d="M28.368,34.056h2.544c0.16,0,0.296,0.136,0.296,0.296v2.542c0,0.159-0.136,0.296-0.296,0.296h-2.544
		c-0.158,0-0.294-0.136-0.294-0.296v-2.542C28.074,34.192,28.21,34.056,28.368,34.056z"/>
	<path fill="#E40012" d="M28.368,37.711h2.544c0.16,0,0.296,0.136,0.296,0.296v2.542c0,0.16-0.136,0.296-0.296,0.296h-2.544
		c-0.158,0-0.294-0.136-0.294-0.296v-2.542C28.074,37.847,28.21,37.711,28.368,37.711z"/>
	<path fill="#E40012" d="M32.025,1.155h2.542c0.16,0,0.296,0.136,0.296,0.294v2.544c0,0.158-0.136,0.294-0.296,0.294h-2.542
		c-0.159,0-0.296-0.136-0.296-0.294V1.449C31.729,1.291,31.866,1.155,32.025,1.155z"/>
	<path fill="#D4007F" d="M32.025,4.81h2.542c0.16,0,0.296,0.137,0.296,0.296v2.542c0,0.158-0.136,0.296-0.296,0.296h-2.542
		c-0.159,0-0.296-0.138-0.296-0.296V5.106C31.729,4.947,31.866,4.81,32.025,4.81z"/>
	<path fill="#E40012" d="M32.025,8.466h2.542c0.16,0,0.296,0.137,0.296,0.294v2.544c0,0.158-0.136,0.295-0.296,0.295h-2.542
		c-0.159,0-0.296-0.138-0.296-0.295V8.761C31.729,8.603,31.866,8.466,32.025,8.466z"/>
	<path fill="#E40012" d="M32.025,12.122h2.542c0.16,0,0.296,0.136,0.296,0.295v2.543c0,0.159-0.136,0.295-0.296,0.295h-2.542
		c-0.159,0-0.296-0.136-0.296-0.295v-2.543C31.729,12.258,31.866,12.122,32.025,12.122z"/>
	<path fill="#E40012" d="M32.025,26.744h2.542c0.16,0,0.296,0.137,0.296,0.296v2.544c0,0.158-0.136,0.294-0.296,0.294h-2.542
		c-0.159,0-0.296-0.136-0.296-0.294V27.04C31.729,26.881,31.866,26.744,32.025,26.744z"/>
	<path fill="#D4007F" d="M32.025,30.401h2.542c0.16,0,0.296,0.136,0.296,0.294v2.544c0,0.158-0.136,0.296-0.296,0.296h-2.542
		c-0.159,0-0.296-0.138-0.296-0.296v-2.544C31.729,30.537,31.866,30.401,32.025,30.401z"/>
	<path fill="#E40012" d="M32.025,34.056h2.542c0.16,0,0.296,0.136,0.296,0.296v2.542c0,0.159-0.136,0.296-0.296,0.296h-2.542
		c-0.159,0-0.296-0.136-0.296-0.296v-2.542C31.729,34.192,31.866,34.056,32.025,34.056z"/>
	<path fill="#927F39" d="M32.025,37.711h2.542c0.16,0,0.296,0.136,0.296,0.296v2.542c0,0.16-0.136,0.296-0.296,0.296h-2.542
		c-0.159,0-0.296-0.136-0.296-0.296v-2.542C31.729,37.847,31.866,37.711,32.025,37.711z"/>
	<path fill="#E40012" d="M35.681,4.81h2.543c0.158,0,0.295,0.137,0.295,0.296v2.542c0,0.158-0.138,0.296-0.295,0.296h-2.543
		c-0.159,0-0.297-0.138-0.297-0.296V5.106C35.384,4.947,35.522,4.81,35.681,4.81z"/>
	<path fill="#E40012" d="M35.681,8.466h2.543c0.158,0,0.295,0.137,0.295,0.294v2.544c0,0.158-0.138,0.295-0.295,0.295h-2.543
		c-0.159,0-0.297-0.138-0.297-0.295V8.761C35.384,8.603,35.522,8.466,35.681,8.466z"/>
	<path fill="#ED827D" d="M35.681,12.122h2.543c0.158,0,0.295,0.136,0.295,0.295v2.543c0,0.159-0.138,0.295-0.295,0.295h-2.543
		c-0.159,0-0.297-0.136-0.297-0.295v-2.543C35.384,12.258,35.522,12.122,35.681,12.122z"/>
	<path fill="#E40012" d="M35.681,15.777h2.543c0.158,0,0.295,0.136,0.295,0.296v2.542c0,0.159-0.138,0.296-0.295,0.296h-2.543
		c-0.159,0-0.297-0.137-0.297-0.296v-2.542C35.384,15.913,35.522,15.777,35.681,15.777z"/>
	<path fill="#E40012" d="M35.681,19.434h2.543c0.158,0,0.295,0.135,0.295,0.294v2.544c0,0.158-0.138,0.296-0.295,0.296h-2.543
		c-0.159,0-0.297-0.138-0.297-0.296v-2.544C35.384,19.568,35.522,19.434,35.681,19.434z"/>
	<path fill="#E40012" d="M35.681,23.089h2.543c0.158,0,0.295,0.137,0.295,0.294v2.544c0,0.16-0.138,0.296-0.295,0.296h-2.543
		c-0.159,0-0.297-0.136-0.297-0.296v-2.544C35.384,23.226,35.522,23.089,35.681,23.089z"/>
	<path fill="#E40012" d="M35.681,26.744h2.543c0.158,0,0.295,0.137,0.295,0.296v2.544c0,0.158-0.138,0.294-0.295,0.294h-2.543
		c-0.159,0-0.297-0.136-0.297-0.294V27.04C35.384,26.881,35.522,26.744,35.681,26.744z"/>
	<path fill="#ED827D" d="M35.681,30.401h2.543c0.158,0,0.295,0.136,0.295,0.294v2.544c0,0.158-0.138,0.296-0.295,0.296h-2.543
		c-0.159,0-0.297-0.138-0.297-0.296v-2.544C35.384,30.537,35.522,30.401,35.681,30.401z"/>
	<path fill="#E40012" d="M35.681,34.056h2.543c0.158,0,0.295,0.136,0.295,0.296v2.542c0,0.159-0.138,0.296-0.295,0.296h-2.543
		c-0.159,0-0.297-0.136-0.297-0.296v-2.542C35.384,34.192,35.522,34.056,35.681,34.056z"/>
	<path fill="#E40012" d="M39.335,4.81h2.544c0.159,0,0.294,0.137,0.294,0.296v2.542c0,0.158-0.135,0.296-0.294,0.296h-2.544
		c-0.156,0-0.294-0.138-0.294-0.296V5.106C39.041,4.947,39.179,4.81,39.335,4.81z"/>
	<path fill="#D4007F" d="M39.335,8.466h2.544c0.159,0,0.294,0.137,0.294,0.294v2.544c0,0.158-0.135,0.295-0.294,0.295h-2.544
		c-0.156,0-0.294-0.138-0.294-0.295V8.761C39.041,8.603,39.179,8.466,39.335,8.466z"/>
	<path fill="#E40012" d="M39.335,12.122h2.544c0.159,0,0.294,0.136,0.294,0.295v2.543c0,0.159-0.135,0.295-0.294,0.295h-2.544
		c-0.156,0-0.294-0.136-0.294-0.295v-2.543C39.041,12.258,39.179,12.122,39.335,12.122z"/>
	<path fill="#E40012" d="M39.335,15.777h2.544c0.159,0,0.294,0.136,0.294,0.296v2.542c0,0.159-0.135,0.296-0.294,0.296h-2.544
		c-0.156,0-0.294-0.137-0.294-0.296v-2.542C39.041,15.913,39.179,15.777,39.335,15.777z"/>
	<path fill="#E40012" d="M39.335,19.434h2.544c0.159,0,0.294,0.135,0.294,0.294v2.544c0,0.158-0.135,0.296-0.294,0.296h-2.544
		c-0.156,0-0.294-0.138-0.294-0.296v-2.544C39.041,19.568,39.179,19.434,39.335,19.434z"/>
	<path fill="#D4007F" d="M39.335,23.089h2.544c0.159,0,0.294,0.137,0.294,0.294v2.544c0,0.16-0.135,0.296-0.294,0.296h-2.544
		c-0.156,0-0.294-0.136-0.294-0.296v-2.544C39.041,23.226,39.179,23.089,39.335,23.089z"/>
	<path fill="#E40012" d="M39.335,26.744h2.544c0.159,0,0.294,0.137,0.294,0.296v2.544c0,0.158-0.135,0.294-0.294,0.294h-2.544
		c-0.156,0-0.294-0.136-0.294-0.294V27.04C39.041,26.881,39.179,26.744,39.335,26.744z"/>
	<path fill="#E40012" d="M39.335,30.401h2.544c0.159,0,0.294,0.136,0.294,0.294v2.544c0,0.158-0.135,0.296-0.294,0.296h-2.544
		c-0.156,0-0.294-0.138-0.294-0.296v-2.544C39.041,30.537,39.179,30.401,39.335,30.401z"/>
	<path fill="#E40012" d="M39.335,34.056h2.544c0.159,0,0.294,0.136,0.294,0.296v2.542c0,0.159-0.135,0.296-0.294,0.296h-2.544
		c-0.156,0-0.294-0.136-0.294-0.296v-2.542C39.041,34.192,39.179,34.056,39.335,34.056z"/>
	<path fill="#E40012" d="M42.992,8.466h2.544c0.159,0,0.294,0.137,0.294,0.294v2.544c0,0.158-0.135,0.295-0.294,0.295h-2.544
		c-0.158,0-0.296-0.138-0.296-0.295V8.761C42.696,8.603,42.834,8.466,42.992,8.466z"/>
	<path fill="#E40012" d="M42.992,12.122h2.544c0.159,0,0.294,0.136,0.294,0.295v2.543c0,0.159-0.135,0.295-0.294,0.295h-2.544
		c-0.158,0-0.296-0.136-0.296-0.295v-2.543C42.696,12.258,42.834,12.122,42.992,12.122z"/>
	<path fill="#EE8000" d="M42.992,15.777h2.544c0.159,0,0.294,0.136,0.294,0.296v2.542c0,0.159-0.135,0.296-0.294,0.296h-2.544
		c-0.158,0-0.296-0.137-0.296-0.296v-2.542C42.696,15.913,42.834,15.777,42.992,15.777z"/>
	<path fill="#E40012" d="M42.992,19.434h2.544c0.159,0,0.294,0.135,0.294,0.294v2.544c0,0.158-0.135,0.296-0.294,0.296h-2.544
		c-0.158,0-0.296-0.138-0.296-0.296v-2.544C42.696,19.568,42.834,19.434,42.992,19.434z"/>
	<path fill="#D4007F" d="M42.992,23.089h2.544c0.159,0,0.294,0.137,0.294,0.294v2.544c0,0.16-0.135,0.296-0.294,0.296h-2.544
		c-0.158,0-0.296-0.136-0.296-0.296v-2.544C42.696,23.226,42.834,23.089,42.992,23.089z"/>
	<path fill="#E40012" d="M42.992,26.744h2.544c0.159,0,0.294,0.137,0.294,0.296v2.544c0,0.158-0.135,0.294-0.294,0.294h-2.544
		c-0.158,0-0.296-0.136-0.296-0.294V27.04C42.696,26.881,42.834,26.744,42.992,26.744z"/>
	<path fill="#EE8000" d="M42.992,30.401h2.544c0.159,0,0.294,0.136,0.294,0.294v2.544c0,0.158-0.135,0.296-0.294,0.296h-2.544
		c-0.158,0-0.296-0.138-0.296-0.296v-2.544C42.696,30.537,42.834,30.401,42.992,30.401z"/>
	<path fill="#A20000" d="M46.649,15.777h2.542c0.16,0,0.294,0.136,0.294,0.296v2.542c0,0.159-0.135,0.296-0.294,0.296h-2.542
		c-0.16,0-0.297-0.137-0.297-0.296v-2.542C46.351,15.913,46.489,15.777,46.649,15.777z"/>
	<path fill="#ED827D" d="M46.649,19.434h2.542c0.16,0,0.294,0.135,0.294,0.294v2.544c0,0.158-0.135,0.296-0.294,0.296h-2.542
		c-0.16,0-0.297-0.138-0.297-0.296v-2.544C46.351,19.568,46.489,19.434,46.649,19.434z"/>
	<path fill="#E40012" d="M46.649,23.089h2.542c0.16,0,0.294,0.137,0.294,0.294v2.544c0,0.16-0.135,0.296-0.294,0.296h-2.542
		c-0.16,0-0.297-0.136-0.297-0.296v-2.544C46.351,23.226,46.489,23.089,46.649,23.089z"/>
</g>
</svg>
